<svg version="1" xmlns="http://www.w3.org/2000/svg" width="610.667" height="610.667" viewBox="0 0 458.000000 458.000000"><path d="M220.9 63.8l-6.7.3-12.5 35.2c-80.8 226.9-97.8 274.4-98.5 275.7-.6 1-5.3 2.2-14.8 3.7-7.6 1.2-14 2.2-14.1 2.2-.2.1-.3 4.4-.3 9.6v9.5h101v-9.4c0-11.1 2.4-9.7-21.3-12.2-10.3-1-17.1-2.2-17.3-2.9-.3-.6 4.6-16.6 10.9-35.6l11.3-34.4h139.7l11.8 35c6.5 19.2 11.5 35.2 11.1 35.6-.4.3-8.3 1.4-17.7 2.3-9.3 1-17.8 2-18.7 2.2-1.6.5-1.8 1.8-1.8 10v9.4h109v-9.5c0-5.2-.1-9.5-.2-9.6-.2 0-6.6-1-14.2-2.2-9.4-1.5-14.2-2.7-14.8-3.7-.5-.8-25.8-71-56.1-156L251.5 64.5l-12-.5c-6.6-.3-15-.4-18.6-.2zm13.5 49.7c4.6 15.8 26.1 80.3 50.8 152.7l5.4 15.8h-61.8c-41.1 0-61.8-.3-61.8-1 0-.6 10.6-32.6 23.6-71.3 12.9-38.6 26.2-79.9 29.6-91.7 3.3-11.8 6.3-22.3 6.5-23.3.3-1 .9-1.5 1.4-1 .4.4 3.3 9.3 6.3 19.8z"/></svg>